# xmcd CD database file
#
# Track frame offsets:
#	150
#	17875
#	46311
#	70378
#	88346
#	112160
#	138929
#	158075
#	171615
#	199914
#	222631
#	244506
#	259731
#	273048
#	304889
#
# Disc length: 4358 seconds
#
# Revision: 0
# Processed by: cddbd v1.5.2PL0 Copyright (c) Steve Scherf et al.
# Submitted via: CDex 1.70beta2
#
DISCID=e511040f
DTITLE=Memphis laBlusera - grandes exitos vol 4
DYEAR=1900
DGENRE=Blues
TTITLE0=Up Above My Head
TTITLE1=Tonto Rompecabezas-Monton de N
TTITLE2=A Punto de Estallar de Amor
TTITLE3=Batiendo los Boogies
TTITLE4=Chau Catalana
TTITLE5=Alma Bajo La Lluvia
TTITLE6=St Louis Blues
TTITLE7=Tangazo
TTITLE8=Tus Amigos
TTITLE9=Blues en Fa
TTITLE10=Blues de Rosario
TTITLE11=Ma Babe
TTITLE12=Piso De Madera
TTITLE13=Se Necesita
TTITLE14=After You`ve Gone
EXTD=
EXTT0=
EXTT1=
EXTT2=
EXTT3=
EXTT4=
EXTT5=
EXTT6=
EXTT7=
EXTT8=
EXTT9=
EXTT10=
EXTT11=
EXTT12=
EXTT13=
EXTT14=
PLAYORDER=
